<?xml version="1.0" encoding="utf-8"?>
<!-- Generator: Adobe Illustrator 16.0.4, SVG Export Plug-In . SVG Version: 6.00 Build 0)  -->
<!DOCTYPE svg PUBLIC "-//W3C//DTD SVG 1.1 Tiny//EN" "http://www.w3.org/Graphics/SVG/1.1/DTD/svg11-tiny.dtd">
<svg version="1.1" baseProfile="tiny" id="Layer_1" xmlns="http://www.w3.org/2000/svg" xmlns:xlink="http://www.w3.org/1999/xlink"
	 x="0px" y="0px" width="520px" height="90px" viewBox="0 0 520 90" xml:space="preserve">
<g>
	<path fill="#FAFAFA" d="M62.903,41.005V14.207l-1.829-2.561h5.396l10.29,14.497l11.067-14.497h2.47v29.359h-4.345v-21.63
		l-9.924,13.216l-9.466-13.262v21.676H62.903z"/>
	<path fill="#FAFAFA" d="M116.454,32.316c0,4.984-2.973,9.191-9.192,9.191c-6.128,0-9.512-3.247-9.512-9.146V18.186h3.841v13.856
		c0,3.841,2.104,6.402,5.67,6.402c3.704,0,5.579-2.606,5.579-5.945V18.186h3.613V32.316z"/>
	<path fill="#FAFAFA" d="M136.758,41.005h-12.394V18.186h3.842v19.71h9.74L136.758,41.005z"/>
	<path fill="#FAFAFA" d="M153.769,21.295h-6.402v19.71h-3.841v-19.71h-6.311v-3.109h17.79L153.769,21.295z"/>
	<path fill="#FAFAFA" d="M159.714,41.005V18.186h3.841v22.819H159.714z"/>
	<path fill="#FAFAFA" d="M181.436,33.459c-0.731,0-1.418-0.091-2.424-0.366v-1.783h0.686c3.795,0,6.173-1.921,6.173-5.854
		c0-3.933-3.475-4.848-7.591-4.848h-1.464v20.396h-3.841V18.506c1.188-0.366,4.024-0.777,7.18-0.777
		c5.305,0,9.558,2.972,9.558,7.774C189.713,29.436,186.877,33.459,181.436,33.459z"/>
	<path fill="#FAFAFA" d="M207.547,41.005h-12.393V18.186h3.841v19.71h9.741L207.547,41.005z"/>
	<path fill="#FAFAFA" d="M226.799,41.005h-13.308V18.186h13.994l-1.006,3.019h-9.146v6.722h8.46l-0.96,3.018h-7.5v6.951h10.884
		L226.799,41.005z"/>
	<path fill="#FAFAFA" d="M238.368,49.923l-1.646-3.75h1.829c3.293,0,4.802-1.601,4.802-5.168V11.646h4.345v29.359
		C247.697,47.361,244.13,49.923,238.368,49.923z"/>
	<path fill="#FAFAFA" d="M264.754,41.508c-6.722,0-11.433-4.938-11.433-11.936c0-6.951,4.802-11.89,11.433-11.89
		s11.434,4.938,11.434,11.89C276.188,36.569,271.477,41.508,264.754,41.508z M264.754,20.792c-4.618,0-7.362,3.75-7.362,8.78
		c0,5.076,2.744,8.78,7.362,8.78c4.665,0,7.363-3.704,7.363-8.78C272.117,24.542,269.373,20.792,264.754,20.792z"/>
	<path fill="#FAFAFA" d="M299.738,32.316c0,4.984-2.973,9.191-9.192,9.191c-6.128,0-9.512-3.247-9.512-9.146V18.186h3.841v13.856
		c0,3.841,2.104,6.402,5.671,6.402c3.704,0,5.579-2.606,5.579-5.945V18.186h3.613V32.316z"/>
	<path fill="#FAFAFA" d="M322.328,41.005l-6.996-8.963h-3.842v8.963h-3.842V18.46c1.875-0.32,4.025-0.823,7.18-0.823
		c5.214,0,9.192,2.241,9.192,6.585c0,3.521-2.973,5.717-5.167,6.54l8.276,10.243H322.328z M313.731,20.609h-2.241v8.552h5.076
		c1.052-0.503,3.566-2.149,3.566-4.619C320.133,21.569,318.075,20.609,313.731,20.609z"/>
	<path fill="#FAFAFA" d="M349.676,41.005l-13.628-16.097v16.097h-3.476V20.701l-2.149-2.515h4.938l12.805,15.274V18.186h3.43v22.819
		H349.676z"/>
	<path fill="#FAFAFA" d="M373.272,41.005l-2.241-5.396h-9.328l-2.287,5.396h-3.704l9.146-20.35l-1.052-2.47h4.07l9.512,22.819
		H373.272z M366.504,24.451l-3.658,8.46h7.089L366.504,24.451z"/>
	<path fill="#FAFAFA" d="M394.766,41.005h-12.393V18.186h3.841v19.71h9.741L394.766,41.005z"/>
	<path fill="#FAFAFA" d="M400.71,41.005V18.186h3.841v22.819H400.71z"/>
	<path fill="#FAFAFA" d="M418.316,41.462c-2.378,0-4.482-0.458-6.402-1.097l-0.641-4.437c2.059,1.418,4.07,2.47,6.814,2.47
		c2.286,0,4.572-1.28,4.572-3.201c0-1.601-1.417-2.79-2.561-3.292l-3.338-1.417c-3.613-1.509-4.803-3.75-4.803-5.991
		c0-4.115,3.521-6.722,8.689-6.722c2.149,0,4.664,0.823,5.717,1.463v4.116c-1.51-1.417-3.385-2.561-5.717-2.561
		c-2.516,0-4.894,1.144-4.894,3.293c0,1.417,1.326,2.332,2.516,2.881l3.841,1.738c1.921,0.869,4.527,2.515,4.527,6.173
		C426.639,38.855,423.118,41.462,418.316,41.462z"/>
	<path fill="#FAFAFA" d="M451.471,41.005v-16.6l-7.774,11.936l-7.18-11.89v16.554h-3.431V20.106l-1.6-1.967h5.533l7.591,12.027
		l7.729-11.981h2.973v22.819H451.471z"/>
</g>
<g>
	<path fill="#FAFAFA" d="M14.081,60.99h4.559l5.391,14.565c0.889,2.437,1.434,3.728,1.863,4.559h-5.82
		c-0.086-0.717-0.172-1.003-0.401-1.807l-0.229-0.917l-0.458-1.577l-0.258-0.028c-0.774,0-1.949-0.029-2.666-0.029
		c-0.746,0-1.577,0-2.408,0.029l-0.315,0.028l-0.517,1.721l-0.229,0.803l-0.258,0.774c-0.028,0.143-0.086,0.372-0.143,0.688
		l-0.086,0.315h-5.39c0.373-0.745,0.889-1.95,1.348-3.125l0.516-1.405l4.043-10.493l0.602-1.577
		C13.708,62.224,13.909,61.65,14.081,60.99z M18.009,72.258l-1.749-6.192l-1.864,6.192c0.344-0.028,0.43-0.028,0.975-0.057h0.774
		h0.745C17.579,72.229,17.607,72.229,18.009,72.258z"/>
	<path fill="#FAFAFA" d="M32.867,69.076v-2.953h1.978V64.23c0-2.208,0.287-3.068,1.348-3.871c1.032-0.773,2.294-1.117,4.215-1.117
		c1.835,0,3.756,0.286,5.849,0.889l-0.659,3.44c-1.548-0.545-2.724-0.804-3.957-0.804c-1.491,0-1.892,0.517-1.892,2.352v1.004h9.175
		c-0.115,0.659-0.172,1.52-0.172,2.867v8.257c0,1.376,0.057,2.236,0.172,2.867h-5.247c0.115-0.688,0.172-1.548,0.172-2.867v-8.171
		h-4.1v8.171c0,1.376,0.057,2.208,0.172,2.867h-5.247c0.115-0.688,0.172-1.52,0.172-2.867v-8.171H32.867z"/>
	<path fill="#FAFAFA" d="M62.259,75.613l1.663,2.494c-1.032,0.773-1.491,1.004-2.724,1.548c-1.405,0.603-2.408,0.803-3.727,0.803
		c-4.129,0-6.422-2.58-6.422-7.225c0-4.674,2.465-7.455,6.652-7.455c2.466,0,4.1,0.804,5.161,2.466
		c0.832,1.291,1.118,2.523,1.118,4.788c0,0.603,0,0.774-0.057,1.233c-1.004-0.058-2.896-0.086-4.444-0.086
		c-0.631,0-1.204,0-1.749,0.028l-1.52,0.028h-0.373c0.029,1.749,0.86,2.695,2.408,2.695C59.392,76.932,60.911,76.416,62.259,75.613z
		 M59.478,71.427c-0.058-1.634-0.659-2.466-1.777-2.466c-1.176,0-1.864,0.832-1.95,2.466c0.488-0.028,1.319-0.058,1.893-0.058
		C58.273,71.369,58.99,71.398,59.478,71.427z"/>
	<path fill="#FAFAFA" d="M65.989,59.586h5.247c-0.115,0.688-0.172,1.52-0.172,2.867v14.794c0,1.348,0.057,2.208,0.172,2.867h-5.247
		c0.115-0.659,0.172-1.52,0.172-2.867V62.453C66.161,61.105,66.104,60.245,65.989,59.586z"/>
	<path fill="#FAFAFA" d="M81.989,66.954v-4.501c0-1.377-0.057-2.208-0.2-2.867h5.161c-0.115,0.659-0.172,1.52-0.172,2.867v14.794
		c0,1.376,0.058,2.236,0.172,2.867H82.19v-1.605c-1.204,1.405-2.294,1.949-3.785,1.949c-3.097,0-5.046-2.78-5.046-7.282
		c0-4.53,2.15-7.397,5.534-7.397C80.184,65.778,81.158,66.151,81.989,66.954z M81.989,70.395c-0.717-0.602-1.261-0.831-1.892-0.831
		c-1.175,0-1.778,1.204-1.778,3.526c0,2.15,0.631,3.383,1.721,3.383c0.659,0,1.29-0.314,1.949-0.945V70.395z"/>
	<path fill="#FAFAFA" d="M96.703,85.275l0.889-3.125c1.405,0.544,2.724,0.803,4.014,0.803c2.409,0,3.154-0.832,3.154-3.441v-0.745
		c-1.204,1.09-2.294,1.548-3.584,1.548c-2.982,0-4.932-2.81-4.932-7.081c0-4.56,2.122-7.455,5.448-7.455
		c1.491,0,2.437,0.545,3.383,1.921v-1.576h4.759c-0.115,0.659-0.172,1.52-0.172,2.867v10.521c0,3.039-0.114,3.613-0.889,4.616
		c-0.458,0.545-1.003,1.004-1.634,1.29c-1.233,0.631-2.781,0.918-4.616,0.918C100.459,86.336,98.595,85.992,96.703,85.275z
		 M104.76,70.624c-0.603-0.659-1.204-1.003-1.807-1.003c-1.118,0-1.749,1.203-1.749,3.469c0,2.322,0.545,3.383,1.749,3.383
		c0.66,0,1.262-0.314,1.807-1.003V70.624z"/>
	<path fill="#FAFAFA" d="M125.55,80.114h-4.96v-2.036c-1.462,1.549-3.068,2.352-4.645,2.352c-1.003,0-1.864-0.315-2.408-0.86
		c-0.746-0.745-0.946-1.52-0.946-3.985V68.99c0-1.348-0.029-2.208-0.172-2.867h5.275c-0.143,0.659-0.201,1.52-0.201,2.867v5.16
		c0,1.291,0.144,1.577,0.803,1.577c0.573,0,1.434-0.459,2.179-1.146V68.99c0-1.348-0.057-2.208-0.172-2.867h5.247
		c-0.115,0.688-0.172,1.52-0.172,2.867v8.257C125.378,78.595,125.435,79.426,125.55,80.114z"/>
	<path fill="#FAFAFA" d="M128.42,66.123h5.247c-0.114,0.659-0.172,1.52-0.172,2.867v8.257c0,1.348,0.058,2.208,0.172,2.867h-5.247
		c0.115-0.659,0.172-1.52,0.172-2.867V68.99C128.592,67.643,128.535,66.782,128.42,66.123z M128.592,63.973v-4.387h4.903v4.387
		H128.592z"/>
	<path fill="#FAFAFA" d="M144.421,66.954v-4.501c0-1.377-0.058-2.208-0.201-2.867h5.161c-0.115,0.659-0.172,1.52-0.172,2.867v14.794
		c0,1.376,0.057,2.236,0.172,2.867h-4.76v-1.605c-1.204,1.405-2.293,1.949-3.784,1.949c-3.097,0-5.046-2.78-5.046-7.282
		c0-4.53,2.15-7.397,5.534-7.397C142.614,65.778,143.589,66.151,144.421,66.954z M144.421,70.395
		c-0.717-0.602-1.262-0.831-1.893-0.831c-1.176,0-1.777,1.204-1.777,3.526c0,2.15,0.631,3.383,1.72,3.383
		c0.66,0,1.291-0.314,1.95-0.945V70.395z"/>
	<path fill="#FAFAFA" d="M162.717,75.613l1.663,2.494c-1.032,0.773-1.491,1.004-2.724,1.548c-1.404,0.603-2.408,0.803-3.727,0.803
		c-4.128,0-6.422-2.58-6.422-7.225c0-4.674,2.466-7.455,6.652-7.455c2.466,0,4.1,0.804,5.161,2.466
		c0.832,1.291,1.118,2.523,1.118,4.788c0,0.603,0,0.774-0.057,1.233c-1.003-0.058-2.896-0.086-4.444-0.086
		c-0.631,0-1.204,0-1.749,0.028l-1.52,0.028h-0.373c0.029,1.749,0.86,2.695,2.408,2.695
		C159.85,76.932,161.369,76.416,162.717,75.613z M159.936,71.427c-0.058-1.634-0.66-2.466-1.778-2.466
		c-1.175,0-1.864,0.832-1.95,2.466c0.487-0.028,1.319-0.058,1.893-0.058C158.731,71.369,159.448,71.398,159.936,71.427z"/>
	<path fill="#FAFAFA" d="M172.441,69.076v-2.953h1.978V64.23c0-2.208,0.287-3.068,1.348-3.871c1.004-0.745,2.236-1.117,3.842-1.117
		c1.434,0,2.925,0.229,4.301,0.688l-0.659,3.269c-0.946-0.315-1.52-0.401-2.179-0.401c-1.348,0-1.749,0.545-1.749,2.322v1.004h1.806
		h0.458h0.603c0.286-0.029,0.458-0.029,0.831-0.086v3.125l-0.287-0.029c-0.544-0.028-1.175-0.057-1.605-0.057h-1.806v8.171
		c0,1.376,0.057,2.208,0.172,2.867h-5.247c0.115-0.688,0.172-1.52,0.172-2.867v-8.171H172.441z"/>
	<path fill="#FAFAFA" d="M183.424,73.118c0-4.415,2.724-7.34,6.91-7.34c4.187,0,6.938,2.925,6.938,7.34
		c0,4.444-2.752,7.34-6.967,7.34C186.12,80.458,183.424,77.592,183.424,73.118z M188.327,73.147c0,2.666,0.688,4.014,2.036,4.014
		c1.319,0,2.007-1.376,2.007-4.043c0-2.666-0.688-4.042-2.007-4.042C188.986,69.076,188.327,70.424,188.327,73.147z"/>
	<path fill="#FAFAFA" d="M199.397,66.123h4.874v2.408c1.262-1.721,2.781-2.666,4.416-2.753v4.731
		c-0.229-0.029-0.315-0.058-0.488-0.058c-1.577,0-2.752,0.573-3.727,1.806v4.989c0,1.348,0.057,2.208,0.172,2.867h-5.247
		c0.115-0.659,0.172-1.52,0.172-2.867V68.99C199.57,67.643,199.513,66.782,199.397,66.123z"/>
	<path fill="#FAFAFA" d="M217.723,66.123h5.247c-0.115,0.659-0.172,1.52-0.172,2.867v8.257c0,1.348,0.057,2.208,0.172,2.867h-5.247
		c0.115-0.659,0.172-1.52,0.172-2.867V68.99C217.895,67.643,217.838,66.782,217.723,66.123z M217.895,63.973v-4.387h4.903v4.387
		H217.895z"/>
	<path fill="#FAFAFA" d="M225.838,66.123h4.931v1.979c1.577-1.606,3.04-2.323,4.731-2.323c1.376,0,2.466,0.631,2.896,1.663
		c0.287,0.66,0.344,1.262,0.344,2.982v6.823c0,1.376,0.058,2.236,0.201,2.867h-5.276c0.144-0.631,0.201-1.548,0.201-2.867v-4.702
		c0-1.721-0.144-2.064-0.831-2.064c-0.574,0-1.348,0.431-2.122,1.176v5.591c0,1.348,0.058,2.208,0.172,2.867h-5.247
		c0.115-0.659,0.172-1.52,0.172-2.867V68.99C226.01,67.643,225.953,66.782,225.838,66.123z"/>
	<path fill="#FAFAFA" d="M249.438,66.954v-4.501c0-1.377-0.058-2.208-0.201-2.867h5.161c-0.115,0.659-0.172,1.52-0.172,2.867v14.794
		c0,1.376,0.057,2.236,0.172,2.867h-4.76v-1.605c-1.204,1.405-2.293,1.949-3.784,1.949c-3.097,0-5.046-2.78-5.046-7.282
		c0-4.53,2.15-7.397,5.534-7.397C247.632,65.778,248.607,66.151,249.438,66.954z M249.438,70.395
		c-0.717-0.602-1.262-0.831-1.893-0.831c-1.176,0-1.777,1.204-1.777,3.526c0,2.15,0.631,3.383,1.72,3.383
		c0.66,0,1.291-0.314,1.95-0.945V70.395z"/>
	<path fill="#FAFAFA" d="M267.734,75.613l1.662,2.494c-1.031,0.773-1.49,1.004-2.724,1.548c-1.404,0.603-2.408,0.803-3.728,0.803
		c-4.128,0-6.422-2.58-6.422-7.225c0-4.674,2.466-7.455,6.652-7.455c2.465,0,4.1,0.804,5.16,2.466
		c0.832,1.291,1.118,2.523,1.118,4.788c0,0.603,0,0.774-0.058,1.233c-1.003-0.058-2.896-0.086-4.443-0.086
		c-0.631,0-1.204,0-1.749,0.028l-1.52,0.028h-0.373c0.028,1.749,0.86,2.695,2.408,2.695
		C264.867,76.932,266.387,76.416,267.734,75.613z M264.953,71.427c-0.058-1.634-0.66-2.466-1.777-2.466
		c-1.176,0-1.864,0.832-1.95,2.466c0.487-0.028,1.319-0.058,1.893-0.058C263.749,71.369,264.466,71.398,264.953,71.427z"/>
	<path fill="#FAFAFA" d="M276.453,79.283v3.812c0,1.377,0.029,2.208,0.172,2.867h-5.16c0.114-0.659,0.172-1.49,0.172-2.867V68.99
		c0-1.348-0.058-2.208-0.172-2.867h4.788v1.548c1.261-1.319,2.408-1.893,3.87-1.893c3.068,0,4.932,2.695,4.932,7.11
		c0,4.731-2.064,7.569-5.505,7.569C278.403,80.458,277.485,80.114,276.453,79.283z M276.453,75.785
		c0.631,0.573,1.319,0.917,1.893,0.917c1.176,0,1.749-1.175,1.749-3.584c0-2.207-0.603-3.325-1.807-3.325
		c-0.516,0-0.946,0.2-1.835,0.889V75.785z"/>
	<path fill="#FAFAFA" d="M297.645,75.613l1.663,2.494c-1.032,0.773-1.491,1.004-2.724,1.548c-1.404,0.603-2.408,0.803-3.727,0.803
		c-4.129,0-6.423-2.58-6.423-7.225c0-4.674,2.466-7.455,6.651-7.455c2.466,0,4.101,0.804,5.161,2.466
		c0.831,1.291,1.118,2.523,1.118,4.788c0,0.603,0,0.774-0.058,1.233c-1.003-0.058-2.896-0.086-4.444-0.086
		c-0.631,0-1.203,0-1.748,0.028l-1.52,0.028h-0.373c0.028,1.749,0.86,2.695,2.408,2.695
		C294.777,76.932,296.297,76.416,297.645,75.613z M294.863,71.427c-0.057-1.634-0.659-2.466-1.777-2.466
		c-1.176,0-1.863,0.832-1.949,2.466c0.487-0.028,1.318-0.058,1.893-0.058C293.66,71.369,294.377,71.398,294.863,71.427z"/>
	<path fill="#FAFAFA" d="M301.375,66.123h4.932v1.979c1.577-1.606,3.039-2.323,4.73-2.323c1.377,0,2.467,0.631,2.896,1.663
		c0.287,0.66,0.344,1.262,0.344,2.982v6.823c0,1.376,0.058,2.236,0.201,2.867h-5.275c0.143-0.631,0.2-1.548,0.2-2.867v-4.702
		c0-1.721-0.144-2.064-0.831-2.064c-0.574,0-1.348,0.431-2.122,1.176v5.591c0,1.348,0.058,2.208,0.172,2.867h-5.247
		c0.115-0.659,0.172-1.52,0.172-2.867V68.99C301.547,67.643,301.49,66.782,301.375,66.123z"/>
	<path fill="#FAFAFA" d="M324.976,66.954v-4.501c0-1.377-0.058-2.208-0.201-2.867h5.161c-0.115,0.659-0.172,1.52-0.172,2.867v14.794
		c0,1.376,0.057,2.236,0.172,2.867h-4.76v-1.605c-1.204,1.405-2.293,1.949-3.784,1.949c-3.097,0-5.046-2.78-5.046-7.282
		c0-4.53,2.15-7.397,5.533-7.397C323.169,65.778,324.145,66.151,324.976,66.954z M324.976,70.395
		c-0.717-0.602-1.262-0.831-1.893-0.831c-1.176,0-1.777,1.204-1.777,3.526c0,2.15,0.631,3.383,1.72,3.383
		c0.66,0,1.291-0.314,1.95-0.945V70.395z"/>
	<path fill="#FAFAFA" d="M343.271,75.613l1.662,2.494c-1.031,0.773-1.49,1.004-2.724,1.548c-1.404,0.603-2.408,0.803-3.728,0.803
		c-4.128,0-6.422-2.58-6.422-7.225c0-4.674,2.466-7.455,6.652-7.455c2.465,0,4.1,0.804,5.16,2.466
		c0.832,1.291,1.118,2.523,1.118,4.788c0,0.603,0,0.774-0.058,1.233c-1.003-0.058-2.896-0.086-4.443-0.086
		c-0.631,0-1.204,0-1.749,0.028l-1.52,0.028h-0.373c0.028,1.749,0.86,2.695,2.408,2.695
		C340.404,76.932,341.924,76.416,343.271,75.613z M340.49,71.427c-0.058-1.634-0.66-2.466-1.777-2.466
		c-1.176,0-1.864,0.832-1.95,2.466c0.487-0.028,1.319-0.058,1.893-0.058C339.286,71.369,340.003,71.398,340.49,71.427z"/>
	<path fill="#FAFAFA" d="M347.002,66.123h4.932v1.979c1.576-1.606,3.039-2.323,4.73-2.323c1.376,0,2.466,0.631,2.896,1.663
		c0.287,0.66,0.345,1.262,0.345,2.982v6.823c0,1.376,0.057,2.236,0.2,2.867h-5.275c0.144-0.631,0.2-1.548,0.2-2.867v-4.702
		c0-1.721-0.143-2.064-0.831-2.064c-0.573,0-1.348,0.431-2.122,1.176v5.591c0,1.348,0.058,2.208,0.172,2.867h-5.246
		c0.114-0.659,0.172-1.52,0.172-2.867V68.99C347.174,67.643,347.116,66.782,347.002,66.123z"/>
	<path fill="#FAFAFA" d="M361.57,69.076v-2.953h2.121l0.574-3.584l4.387-0.803l-0.058,4.387h1.892c0.717,0,1.319-0.029,1.836-0.086
		v3.125c-0.66-0.058-1.176-0.086-1.836-0.086h-1.892v6.021c0,1.462,0.172,1.835,0.803,1.835c0.487,0,1.262-0.315,2.15-0.918
		l1.29,2.667c-1.863,1.262-3.612,1.864-5.305,1.864c-1.462,0-2.637-0.517-3.182-1.377c-0.459-0.773-0.66-1.777-0.66-3.526v-6.565
		H361.57z"/>
	<path fill="#FAFAFA" d="M377.831,85.533l0.717-3.097c0.517,0.2,0.975,0.287,1.462,0.287c0.975,0,1.262-0.487,1.291-2.208
		l0.028-1.348V68.99c0-1.348-0.058-2.208-0.201-2.867h5.276c-0.145,0.659-0.201,1.52-0.201,2.867v10.178v2.724
		c0,2.896-1.52,4.358-4.502,4.358C380.469,86.25,379.064,85.992,377.831,85.533z M381.329,64.029v-4.357h4.902v4.357H381.329z"/>
	<path fill="#FAFAFA" d="M388.412,73.118c0-4.415,2.724-7.34,6.91-7.34c4.186,0,6.938,2.925,6.938,7.34
		c0,4.444-2.753,7.34-6.968,7.34C391.107,80.458,388.412,77.592,388.412,73.118z M393.314,73.147c0,2.666,0.688,4.014,2.036,4.014
		c1.319,0,2.007-1.376,2.007-4.043c0-2.666-0.688-4.042-2.007-4.042C393.975,69.076,393.314,70.424,393.314,73.147z"/>
	<path fill="#FAFAFA" d="M417.23,80.114h-4.96v-2.036c-1.462,1.549-3.068,2.352-4.646,2.352c-1.003,0-1.863-0.315-2.408-0.86
		c-0.745-0.745-0.945-1.52-0.945-3.985V68.99c0-1.348-0.029-2.208-0.172-2.867h5.275c-0.144,0.659-0.201,1.52-0.201,2.867v5.16
		c0,1.291,0.144,1.577,0.803,1.577c0.573,0,1.434-0.459,2.179-1.146V68.99c0-1.348-0.057-2.208-0.172-2.867h5.247
		c-0.115,0.688-0.172,1.52-0.172,2.867v8.257C417.059,78.595,417.115,79.426,417.23,80.114z"/>
	<path fill="#FAFAFA" d="M420.102,66.123h4.873v2.408c1.262-1.721,2.781-2.666,4.416-2.753v4.731
		c-0.229-0.029-0.315-0.058-0.487-0.058c-1.577,0-2.753,0.573-3.728,1.806v4.989c0,1.348,0.058,2.208,0.172,2.867h-5.246
		c0.114-0.659,0.172-1.52,0.172-2.867V68.99C420.273,67.643,420.216,66.782,420.102,66.123z"/>
	<path fill="#FAFAFA" d="M430.826,66.123h4.932v1.979c1.577-1.606,3.039-2.323,4.73-2.323c1.377,0,2.466,0.631,2.896,1.663
		c0.286,0.66,0.344,1.262,0.344,2.982v6.823c0,1.376,0.058,2.236,0.201,2.867h-5.276c0.144-0.631,0.201-1.548,0.201-2.867v-4.702
		c0-1.721-0.144-2.064-0.831-2.064c-0.574,0-1.348,0.431-2.122,1.176v5.591c0,1.348,0.058,2.208,0.172,2.867h-5.247
		c0.115-0.659,0.172-1.52,0.172-2.867V68.99C430.998,67.643,430.941,66.782,430.826,66.123z"/>
	<path fill="#FAFAFA" d="M448.176,70.48l-1.348-2.81c2.322-1.233,4.788-1.893,7.054-1.893c2.208,0,3.67,0.487,4.501,1.52
		c0.717,0.89,0.832,1.491,0.832,4.272v5.705c0,1.348,0.057,2.18,0.172,2.839h-4.875v-1.434c-1.175,1.09-2.838,1.777-4.271,1.777
		c-2.294,0-3.928-1.72-3.928-4.128c0-3.154,3.269-5.391,7.999-5.477V70.48c0-0.917-0.43-1.318-1.434-1.318
		C451.616,69.162,449.639,69.707,448.176,70.48z M454.312,73.463c-2.093,0.114-3.269,0.859-3.269,2.035
		c0,0.717,0.459,1.204,1.176,1.204c0.602,0,1.49-0.344,2.093-0.831V73.463z"/>
	<path fill="#FAFAFA" d="M462.257,59.586h5.247c-0.115,0.688-0.172,1.52-0.172,2.867v14.794c0,1.348,0.057,2.208,0.172,2.867h-5.247
		c0.115-0.659,0.173-1.52,0.173-2.867V62.453C462.43,61.105,462.372,60.245,462.257,59.586z"/>
	<path fill="#FAFAFA" d="M470.373,66.123h5.246c-0.114,0.659-0.172,1.52-0.172,2.867v8.257c0,1.348,0.058,2.208,0.172,2.867h-5.246
		c0.114-0.659,0.172-1.52,0.172-2.867V68.99C470.545,67.643,470.487,66.782,470.373,66.123z M470.545,63.973v-4.387h4.902v4.387
		H470.545z"/>
	<path fill="#FAFAFA" d="M477.943,79.771l0.889-3.326c1.09,0.459,2.552,0.717,3.957,0.717c1.032,0,1.634-0.401,1.634-1.118
		c0-0.516-0.372-0.86-1.204-1.146l-1.176-0.402c-2.322-0.803-3.67-2.408-3.67-4.271c0-2.752,2.38-4.444,6.223-4.444
		c1.462,0,2.896,0.173,4.387,0.573l-0.832,3.126c-1.09-0.345-2.322-0.517-3.326-0.517c-0.859,0-1.348,0.344-1.348,0.946
		c0,0.487,0.316,0.745,1.348,1.09c2.18,0.745,2.695,1.003,3.498,1.749c0.803,0.773,1.233,1.748,1.233,2.81
		c0,3.011-2.581,4.902-6.681,4.902C481.184,80.458,479.435,80.229,477.943,79.771z"/>
	<path fill="#FAFAFA" d="M490.246,69.076v-2.953h2.122l0.573-3.584l4.387-0.803l-0.057,4.387h1.892c0.717,0,1.319-0.029,1.835-0.086
		v3.125c-0.659-0.058-1.176-0.086-1.835-0.086h-1.892v6.021c0,1.462,0.172,1.835,0.803,1.835c0.486,0,1.261-0.315,2.15-0.918
		l1.289,2.667c-1.863,1.262-3.612,1.864-5.304,1.864c-1.462,0-2.638-0.517-3.183-1.377c-0.459-0.773-0.659-1.777-0.659-3.526v-6.565
		H490.246z"/>
	<path fill="#FAFAFA" d="M502.004,79.771l0.889-3.326c1.09,0.459,2.553,0.717,3.957,0.717c1.032,0,1.635-0.401,1.635-1.118
		c0-0.516-0.373-0.86-1.205-1.146l-1.175-0.402c-2.322-0.803-3.67-2.408-3.67-4.271c0-2.752,2.38-4.444,6.222-4.444
		c1.462,0,2.896,0.173,4.387,0.573l-0.832,3.126c-1.089-0.345-2.322-0.517-3.325-0.517c-0.86,0-1.348,0.344-1.348,0.946
		c0,0.487,0.315,0.745,1.348,1.09c2.179,0.745,2.694,1.003,3.497,1.749c0.803,0.773,1.233,1.748,1.233,2.81
		c0,3.011-2.581,4.902-6.681,4.902C505.244,80.458,503.495,80.229,502.004,79.771z"/>
</g>
<g>
</g>
<g>
</g>
<g>
</g>
<g>
</g>
<g>
</g>
<g>
</g>
<g>
</g>
<g>
</g>
<g>
</g>
<g>
</g>
<g>
</g>
<g>
</g>
<g>
</g>
<g>
</g>
<g>
</g>
</svg>
